<svg xmlns="http://www.w3.org/2000/svg" width="43.952" height="43.952" viewBox="0 0 43.952 43.952"><defs><style>.a{fill:#f8f8f8;}</style></defs><path class="a" d="M291.407,508.668q-.275.045-.551.082Q291.132,508.713,291.407,508.668Zm0,0" transform="translate(-265.887 -465.002)"/><path class="a" d="M299.6,507.793l-.263.046Zm0,0" transform="translate(-273.643 -464.202)"/><path class="a" d="M278.256,510.34q-.321.036-.646.064Q277.934,510.376,278.256,510.34Zm0,0" transform="translate(-253.778 -466.53)"/><path class="a" d="M286.755,509.738l-.31.039Zm0,0" transform="translate(-261.856 -465.98)"/><path class="a" d="M306.9,506.41l-.232.049Zm0,0" transform="translate(-280.339 -462.938)"/><path class="a" d="M324.671,502.113l-.187.052Zm0,0" transform="translate(-296.629 -459.01)"/><path class="a" d="M319.262,503.543l-.2.053Zm0,0" transform="translate(-291.669 -460.317)"/><path class="a" d="M312.283,505.254l-.217.049Zm0,0" transform="translate(-285.277 -461.881)"/><path class="a" d="M273.828,511.09q-.174.015-.347.026Q273.655,511.1,273.828,511.09Zm0,0" transform="translate(-250.004 -467.216)"/><path class="a" d="M43.952,21.976A21.976,21.976,0,1,0,21.976,43.952c.129,0,.258,0,.386-.005V26.84H17.641v-5.5h4.721V17.288c0-4.7,2.867-7.252,7.056-7.252a38.866,38.866,0,0,1,4.233.216v4.908H30.762c-2.279,0-2.72,1.083-2.72,2.672v3.5h5.449l-.71,5.5H28.042V43.1A21.988,21.988,0,0,0,43.952,21.976Zm0,0"/><path class="a" d="M265.579,511.43q-.343.022-.689.034Q265.236,511.452,265.579,511.43Zm0,0" transform="translate(-242.151 -467.526)"/><path class="a" d="M260.869,511.836q-.182.006-.365.009Q260.686,511.842,260.869,511.836Zm0,0" transform="translate(-238.141 -467.898)"/></svg>